<mxfile host="app.diagrams.net" modified="2023-08-22T12:26:06.198Z" agent="Mozilla/5.0 (Windows NT 10.0; Win64; x64; rv:109.0) Gecko/20100101 Firefox/116.0" version="21.6.6" etag="8-fyVtrtaLc1aNTmGppf" type="github">
  <diagram name="第 1 页" id="oQUf27alrP08siIPvUEw">
    <mxGraphModel>
      <root>
        <mxCell id="0" />
        <mxCell id="1" parent="0" />
      </root>
    </mxGraphModel>
  </diagram>
</mxfile>
